<svg width="37" height="32" viewBox="0 0 37 32" fill="none" xmlns="http://www.w3.org/2000/svg">
<path d="M14.9129 0.76177L1.2819 15.2512C0.850488 15.7113 0.850488 16.4554 1.2819 16.9155L14.9129 31.4049C15.3443 31.865 16.0419 31.865 16.4733 31.4049L17.125 30.7098C17.5564 30.2497 17.5564 29.5056 17.125 29.0455L6.47727 17.7477H35.1069C35.7127 17.7477 36.2083 17.219 36.2083 16.5728V15.5938C36.2083 14.9477 35.7127 14.419 35.1069 14.419L6.47727 14.419L17.1158 3.12119C17.5473 2.66106 17.5473 1.91701 17.1158 1.45687L16.4641 0.76177C16.0419 0.301633 15.3443 0.301633 14.9129 0.76177Z" fill="#666666"/>
</svg>
