<svg width="63" height="63" viewBox="0 0 63 63" fill="none" xmlns="http://www.w3.org/2000/svg">
<g clip-path="url(#clip0_2_266)">
<path d="M33.7335 62.6238H29.5021C28.4624 62.5029 27.4154 62.4908 26.3733 62.4231C24.3797 62.2949 22.5119 61.6977 20.6658 61.0123C17.0244 59.6727 13.713 57.7481 10.8236 55.1477C8.04296 52.6415 5.67218 49.7957 3.90346 46.4626C2.52113 43.8906 1.50698 41.1371 0.890717 38.2829C0.631998 37.0619 0.648922 35.8094 0.557041 34.569C0.544951 34.4131 0.609028 34.2474 0.497803 34.1036V29.6305C0.618699 28.5884 0.611444 27.539 0.696071 26.4945C0.858073 24.5106 1.42992 22.6258 2.1154 20.7858C3.77406 16.2672 6.47071 12.2011 9.98819 8.9152C13.7092 5.4016 18.2391 2.85954 23.1768 1.51404C25.0241 1.00508 26.9004 0.870883 28.7937 0.8056C28.9895 0.799555 29.1962 0.868465 29.3812 0.748779H32.6454C33.025 0.882972 33.4167 0.774167 33.8012 0.809227C37.3809 0.737899 40.7455 1.63735 43.9964 3.06028C48.1589 4.88337 51.7217 7.53338 54.7465 10.9051C58.3895 14.9311 60.8934 19.8553 62.0003 25.1707C62.2579 26.3796 62.2421 27.6309 62.3207 28.8652C62.334 29.0804 62.2554 29.3065 62.3787 29.512V34.106C62.2579 34.9704 62.2579 35.842 62.1974 36.71C62.0161 39.0312 61.2943 41.2073 60.4311 43.3435C59.2657 46.2075 57.7605 48.8914 55.7705 51.2754C53.1169 54.4537 50.057 57.1485 46.3902 59.1336C43.752 60.5681 40.9209 61.6154 37.9842 62.243C36.7753 62.5005 35.5433 62.4775 34.3211 62.5657C34.1252 62.579 33.9197 62.5029 33.7335 62.6238Z" fill="#3BB46B"/>
<path d="M19.3155 28.0297C19.4618 28.1615 19.5984 28.2715 19.7253 28.4009C21.8737 30.5238 24.0305 32.6394 26.1607 34.7804C26.5161 35.1371 26.695 35.1335 27.0505 34.7804C32.3917 29.4152 37.7394 24.0555 43.0935 18.7015C43.4852 18.3074 43.6823 18.3207 44.0607 18.7015C45.4292 20.0942 46.8304 21.4567 48.2389 22.8119C48.5278 23.0912 48.5181 23.2399 48.2389 23.5204C41.1398 30.6031 34.0472 37.6936 26.961 44.7917C26.6878 45.0661 26.5391 45.0843 26.2538 44.7989C22.4068 40.9537 18.5506 37.1206 14.6852 33.2995C14.453 33.0698 14.2789 32.9162 14.6199 32.5898C16.1045 31.173 17.5589 29.7222 19.0241 28.28C19.1088 28.1977 19.2067 28.1252 19.3155 28.0297Z" fill="white"/>
</g>
<defs>
<clipPath id="clip0_2_266">
<rect width="61.875" height="61.875" fill="white" transform="translate(0.500244 0.749939)"/>
</clipPath>
</defs>
</svg>
